<mxfile host="app.diagrams.net" agent="Mozilla/5.0 (Windows NT 10.0; Win64; x64) AppleWebKit/537.36 (KHTML, like Gecko) Chrome/128.0.0.0 Safari/537.36" version="24.7.14" pages="2">
  <diagram name="Page-1" id="hTeoOjlStnG2wIZX-K_J">
    <mxGraphModel dx="870" dy="897" grid="1" gridSize="10" guides="1" tooltips="1" connect="1" arrows="1" fold="1" page="1" pageScale="1" pageWidth="850" pageHeight="1100" math="0" shadow="0">
      <root>
        <mxCell id="0" />
        <mxCell id="1" parent="0" />
        <mxCell id="GKml0xn0QlpvPfaCFVlW-1" value="" style="whiteSpace=wrap;html=1;aspect=fixed;" vertex="1" parent="1">
          <mxGeometry x="30" y="70" width="370" height="370" as="geometry" />
        </mxCell>
        <mxCell id="3G8W68W2lsaJe53vn5Wr-1" value="&lt;font style=&quot;font-size: 24px;&quot;&gt;animal_management&lt;/font&gt;" style="text;strokeColor=none;align=center;fillColor=none;html=1;verticalAlign=middle;whiteSpace=wrap;rounded=0;" vertex="1" parent="1">
          <mxGeometry x="120" y="110" width="120" height="30" as="geometry" />
        </mxCell>
        <mxCell id="3G8W68W2lsaJe53vn5Wr-3" value="" style="whiteSpace=wrap;html=1;aspect=fixed;" vertex="1" parent="1">
          <mxGeometry x="40" y="240" width="160" height="160" as="geometry" />
        </mxCell>
        <mxCell id="3G8W68W2lsaJe53vn5Wr-5" value="&lt;font style=&quot;font-size: 18px;&quot;&gt;animal_manager&lt;/font&gt;" style="text;strokeColor=none;align=center;fillColor=none;html=1;verticalAlign=middle;whiteSpace=wrap;rounded=0;" vertex="1" parent="1">
          <mxGeometry x="90" y="305" width="60" height="30" as="geometry" />
        </mxCell>
        <mxCell id="3G8W68W2lsaJe53vn5Wr-7" value="" style="whiteSpace=wrap;html=1;aspect=fixed;" vertex="1" parent="1">
          <mxGeometry x="220" y="240" width="160" height="160" as="geometry" />
        </mxCell>
        <mxCell id="3G8W68W2lsaJe53vn5Wr-8" value="&lt;font style=&quot;font-size: 24px;&quot;&gt;animal&lt;/font&gt;" style="text;strokeColor=none;align=center;fillColor=none;html=1;verticalAlign=middle;whiteSpace=wrap;rounded=0;" vertex="1" parent="1">
          <mxGeometry x="270" y="305" width="60" height="30" as="geometry" />
        </mxCell>
        <mxCell id="3G8W68W2lsaJe53vn5Wr-9" style="edgeStyle=orthogonalEdgeStyle;rounded=0;orthogonalLoop=1;jettySize=auto;html=1;exitX=0.75;exitY=0;exitDx=0;exitDy=0;entryX=0.5;entryY=0;entryDx=0;entryDy=0;" edge="1" parent="1" source="3G8W68W2lsaJe53vn5Wr-5" target="3G8W68W2lsaJe53vn5Wr-5">
          <mxGeometry relative="1" as="geometry" />
        </mxCell>
        <mxCell id="3G8W68W2lsaJe53vn5Wr-10" value="" style="whiteSpace=wrap;html=1;aspect=fixed;" vertex="1" parent="1">
          <mxGeometry x="165" y="520" width="520" height="520" as="geometry" />
        </mxCell>
        <mxCell id="3G8W68W2lsaJe53vn5Wr-11" value="" style="whiteSpace=wrap;html=1;aspect=fixed;" vertex="1" parent="1">
          <mxGeometry x="220" y="850" width="160" height="160" as="geometry" />
        </mxCell>
        <mxCell id="3G8W68W2lsaJe53vn5Wr-12" value="" style="whiteSpace=wrap;html=1;aspect=fixed;" vertex="1" parent="1">
          <mxGeometry x="470" y="850" width="160" height="160" as="geometry" />
        </mxCell>
        <mxCell id="3G8W68W2lsaJe53vn5Wr-13" value="" style="whiteSpace=wrap;html=1;aspect=fixed;" vertex="1" parent="1">
          <mxGeometry x="470" y="70" width="370" height="370" as="geometry" />
        </mxCell>
        <mxCell id="3G8W68W2lsaJe53vn5Wr-14" value="" style="whiteSpace=wrap;html=1;aspect=fixed;" vertex="1" parent="1">
          <mxGeometry x="480" y="240" width="160" height="160" as="geometry" />
        </mxCell>
        <mxCell id="3G8W68W2lsaJe53vn5Wr-15" value="" style="whiteSpace=wrap;html=1;aspect=fixed;" vertex="1" parent="1">
          <mxGeometry x="670" y="240" width="160" height="160" as="geometry" />
        </mxCell>
        <mxCell id="3G8W68W2lsaJe53vn5Wr-16" value="&lt;font style=&quot;font-size: 24px;&quot;&gt;habitat_management&lt;/font&gt;" style="text;strokeColor=none;align=center;fillColor=none;html=1;verticalAlign=middle;whiteSpace=wrap;rounded=0;" vertex="1" parent="1">
          <mxGeometry x="590" y="110" width="60" height="30" as="geometry" />
        </mxCell>
        <mxCell id="3G8W68W2lsaJe53vn5Wr-17" value="&lt;font style=&quot;font-size: 18px;&quot;&gt;habitat_manager&lt;/font&gt;" style="text;strokeColor=none;align=center;fillColor=none;html=1;verticalAlign=middle;whiteSpace=wrap;rounded=0;" vertex="1" parent="1">
          <mxGeometry x="530" y="305" width="60" height="30" as="geometry" />
        </mxCell>
        <mxCell id="3G8W68W2lsaJe53vn5Wr-18" value="&lt;font style=&quot;font-size: 24px;&quot;&gt;habitat&lt;/font&gt;" style="text;strokeColor=none;align=center;fillColor=none;html=1;verticalAlign=middle;whiteSpace=wrap;rounded=0;" vertex="1" parent="1">
          <mxGeometry x="720" y="305" width="60" height="30" as="geometry" />
        </mxCell>
        <mxCell id="3G8W68W2lsaJe53vn5Wr-21" value="&lt;font style=&quot;font-size: 24px;&quot;&gt;migration_tracking&lt;/font&gt;" style="text;strokeColor=none;align=center;fillColor=none;html=1;verticalAlign=middle;whiteSpace=wrap;rounded=0;" vertex="1" parent="1">
          <mxGeometry x="310" y="570" width="60" height="30" as="geometry" />
        </mxCell>
        <mxCell id="3G8W68W2lsaJe53vn5Wr-25" value="" style="rounded=0;whiteSpace=wrap;html=1;" vertex="1" parent="1">
          <mxGeometry x="290" y="690" width="250" height="100" as="geometry" />
        </mxCell>
        <mxCell id="3G8W68W2lsaJe53vn5Wr-27" value="&lt;font style=&quot;font-size: 18px;&quot;&gt;migration_management&lt;/font&gt;" style="text;strokeColor=none;align=center;fillColor=none;html=1;verticalAlign=middle;whiteSpace=wrap;rounded=0;" vertex="1" parent="1">
          <mxGeometry x="385" y="725" width="60" height="30" as="geometry" />
        </mxCell>
        <mxCell id="3G8W68W2lsaJe53vn5Wr-28" value="&lt;font style=&quot;font-size: 18px;&quot;&gt;migration_path&lt;/font&gt;" style="text;strokeColor=none;align=center;fillColor=none;html=1;verticalAlign=middle;whiteSpace=wrap;rounded=0;" vertex="1" parent="1">
          <mxGeometry x="270" y="915" width="60" height="30" as="geometry" />
        </mxCell>
        <mxCell id="3G8W68W2lsaJe53vn5Wr-29" value="&lt;font style=&quot;font-size: 24px;&quot;&gt;migration&lt;/font&gt;" style="text;strokeColor=none;align=center;fillColor=none;html=1;verticalAlign=middle;whiteSpace=wrap;rounded=0;" vertex="1" parent="1">
          <mxGeometry x="520" y="915" width="60" height="30" as="geometry" />
        </mxCell>
      </root>
    </mxGraphModel>
  </diagram>
  <diagram name="Page 2" id="VpFuwVDcKZp3aX40jyV5">
    <mxGraphModel dx="653" dy="673" grid="1" gridSize="10" guides="1" tooltips="1" connect="1" arrows="1" fold="1" page="1" pageScale="1" pageWidth="850" pageHeight="1100" math="0" shadow="0">
      <root>
        <mxCell id="B0jDkbaa32eKcBH1OwyZ-0" />
        <mxCell id="B0jDkbaa32eKcBH1OwyZ-1" parent="B0jDkbaa32eKcBH1OwyZ-0" />
        <mxCell id="B0jDkbaa32eKcBH1OwyZ-2" value="" style="whiteSpace=wrap;html=1;aspect=fixed;" vertex="1" parent="B0jDkbaa32eKcBH1OwyZ-1">
          <mxGeometry x="30" y="70" width="370" height="370" as="geometry" />
        </mxCell>
        <mxCell id="B0jDkbaa32eKcBH1OwyZ-3" value="&lt;font style=&quot;font-size: 24px;&quot;&gt;animal_management&lt;/font&gt;" style="text;strokeColor=none;align=center;fillColor=none;html=1;verticalAlign=middle;whiteSpace=wrap;rounded=0;" vertex="1" parent="B0jDkbaa32eKcBH1OwyZ-1">
          <mxGeometry x="120" y="110" width="120" height="30" as="geometry" />
        </mxCell>
        <mxCell id="B0jDkbaa32eKcBH1OwyZ-4" value="" style="whiteSpace=wrap;html=1;aspect=fixed;" vertex="1" parent="B0jDkbaa32eKcBH1OwyZ-1">
          <mxGeometry x="40" y="240" width="160" height="160" as="geometry" />
        </mxCell>
        <mxCell id="B0jDkbaa32eKcBH1OwyZ-5" value="&lt;font style=&quot;font-size: 18px;&quot;&gt;animal_manager&lt;/font&gt;" style="text;strokeColor=none;align=center;fillColor=none;html=1;verticalAlign=middle;whiteSpace=wrap;rounded=0;" vertex="1" parent="B0jDkbaa32eKcBH1OwyZ-1">
          <mxGeometry x="90" y="305" width="60" height="30" as="geometry" />
        </mxCell>
        <mxCell id="B0jDkbaa32eKcBH1OwyZ-6" value="" style="whiteSpace=wrap;html=1;aspect=fixed;" vertex="1" parent="B0jDkbaa32eKcBH1OwyZ-1">
          <mxGeometry x="220" y="240" width="160" height="160" as="geometry" />
        </mxCell>
        <mxCell id="B0jDkbaa32eKcBH1OwyZ-7" value="&lt;font style=&quot;font-size: 24px;&quot;&gt;animal&lt;/font&gt;" style="text;strokeColor=none;align=center;fillColor=none;html=1;verticalAlign=middle;whiteSpace=wrap;rounded=0;" vertex="1" parent="B0jDkbaa32eKcBH1OwyZ-1">
          <mxGeometry x="270" y="305" width="60" height="30" as="geometry" />
        </mxCell>
        <mxCell id="B0jDkbaa32eKcBH1OwyZ-9" value="" style="whiteSpace=wrap;html=1;aspect=fixed;" vertex="1" parent="B0jDkbaa32eKcBH1OwyZ-1">
          <mxGeometry x="165" y="520" width="520" height="520" as="geometry" />
        </mxCell>
        <mxCell id="B0jDkbaa32eKcBH1OwyZ-10" value="" style="whiteSpace=wrap;html=1;aspect=fixed;" vertex="1" parent="B0jDkbaa32eKcBH1OwyZ-1">
          <mxGeometry x="220" y="850" width="160" height="160" as="geometry" />
        </mxCell>
        <mxCell id="B0jDkbaa32eKcBH1OwyZ-11" value="" style="whiteSpace=wrap;html=1;aspect=fixed;" vertex="1" parent="B0jDkbaa32eKcBH1OwyZ-1">
          <mxGeometry x="470" y="850" width="160" height="160" as="geometry" />
        </mxCell>
        <mxCell id="B0jDkbaa32eKcBH1OwyZ-12" value="" style="whiteSpace=wrap;html=1;aspect=fixed;" vertex="1" parent="B0jDkbaa32eKcBH1OwyZ-1">
          <mxGeometry x="470" y="70" width="370" height="370" as="geometry" />
        </mxCell>
        <mxCell id="B0jDkbaa32eKcBH1OwyZ-13" value="" style="whiteSpace=wrap;html=1;aspect=fixed;" vertex="1" parent="B0jDkbaa32eKcBH1OwyZ-1">
          <mxGeometry x="480" y="240" width="160" height="160" as="geometry" />
        </mxCell>
        <mxCell id="B0jDkbaa32eKcBH1OwyZ-14" value="" style="whiteSpace=wrap;html=1;aspect=fixed;" vertex="1" parent="B0jDkbaa32eKcBH1OwyZ-1">
          <mxGeometry x="670" y="240" width="160" height="160" as="geometry" />
        </mxCell>
        <mxCell id="B0jDkbaa32eKcBH1OwyZ-15" value="&lt;font style=&quot;font-size: 24px;&quot;&gt;habitat_management&lt;/font&gt;" style="text;strokeColor=none;align=center;fillColor=none;html=1;verticalAlign=middle;whiteSpace=wrap;rounded=0;" vertex="1" parent="B0jDkbaa32eKcBH1OwyZ-1">
          <mxGeometry x="590" y="110" width="60" height="30" as="geometry" />
        </mxCell>
        <mxCell id="B0jDkbaa32eKcBH1OwyZ-16" value="&lt;font style=&quot;font-size: 18px;&quot;&gt;habitat_manager&lt;/font&gt;" style="text;strokeColor=none;align=center;fillColor=none;html=1;verticalAlign=middle;whiteSpace=wrap;rounded=0;" vertex="1" parent="B0jDkbaa32eKcBH1OwyZ-1">
          <mxGeometry x="530" y="305" width="60" height="30" as="geometry" />
        </mxCell>
        <mxCell id="B0jDkbaa32eKcBH1OwyZ-17" value="&lt;font style=&quot;font-size: 24px;&quot;&gt;habitat&lt;/font&gt;" style="text;strokeColor=none;align=center;fillColor=none;html=1;verticalAlign=middle;whiteSpace=wrap;rounded=0;" vertex="1" parent="B0jDkbaa32eKcBH1OwyZ-1">
          <mxGeometry x="720" y="305" width="60" height="30" as="geometry" />
        </mxCell>
        <mxCell id="B0jDkbaa32eKcBH1OwyZ-18" value="&lt;font style=&quot;font-size: 24px;&quot;&gt;migration_tracking&lt;/font&gt;" style="text;strokeColor=none;align=center;fillColor=none;html=1;verticalAlign=middle;whiteSpace=wrap;rounded=0;" vertex="1" parent="B0jDkbaa32eKcBH1OwyZ-1">
          <mxGeometry x="310" y="570" width="60" height="30" as="geometry" />
        </mxCell>
        <mxCell id="B0jDkbaa32eKcBH1OwyZ-19" value="" style="rounded=0;whiteSpace=wrap;html=1;" vertex="1" parent="B0jDkbaa32eKcBH1OwyZ-1">
          <mxGeometry x="290" y="690" width="250" height="100" as="geometry" />
        </mxCell>
        <mxCell id="B0jDkbaa32eKcBH1OwyZ-20" value="&lt;font style=&quot;font-size: 18px;&quot;&gt;migration_manager&lt;/font&gt;" style="text;strokeColor=none;align=center;fillColor=none;html=1;verticalAlign=middle;whiteSpace=wrap;rounded=0;" vertex="1" parent="B0jDkbaa32eKcBH1OwyZ-1">
          <mxGeometry x="385" y="725" width="60" height="30" as="geometry" />
        </mxCell>
        <mxCell id="B0jDkbaa32eKcBH1OwyZ-21" value="&lt;font style=&quot;font-size: 18px;&quot;&gt;migration_path&lt;/font&gt;" style="text;strokeColor=none;align=center;fillColor=none;html=1;verticalAlign=middle;whiteSpace=wrap;rounded=0;" vertex="1" parent="B0jDkbaa32eKcBH1OwyZ-1">
          <mxGeometry x="270" y="915" width="60" height="30" as="geometry" />
        </mxCell>
        <mxCell id="B0jDkbaa32eKcBH1OwyZ-22" value="&lt;font style=&quot;font-size: 24px;&quot;&gt;migration&lt;/font&gt;" style="text;strokeColor=none;align=center;fillColor=none;html=1;verticalAlign=middle;whiteSpace=wrap;rounded=0;" vertex="1" parent="B0jDkbaa32eKcBH1OwyZ-1">
          <mxGeometry x="520" y="915" width="60" height="30" as="geometry" />
        </mxCell>
        <mxCell id="7cdcQIRUahdM-4hk9uW0-1" value="&lt;div style=&quot;color: rgb(204, 204, 204); background-color: rgb(31, 31, 31); font-family: Consolas, &amp;quot;Courier New&amp;quot;, monospace; font-size: 14px; line-height: 19px; white-space: pre;&quot;&gt;&lt;span style=&quot;color: #dcdcaa;&quot;&gt;get_animal_by_id&lt;/span&gt;&lt;/div&gt;" style="text;strokeColor=none;align=center;fillColor=none;html=1;verticalAlign=middle;whiteSpace=wrap;rounded=0;" vertex="1" parent="B0jDkbaa32eKcBH1OwyZ-1">
          <mxGeometry x="210" y="210" width="60" height="30" as="geometry" />
        </mxCell>
        <mxCell id="7cdcQIRUahdM-4hk9uW0-2" value="&lt;div style=&quot;color: rgb(204, 204, 204); background-color: rgb(31, 31, 31); font-family: Consolas, &amp;quot;Courier New&amp;quot;, monospace; font-size: 14px; line-height: 19px; white-space: pre;&quot;&gt;&lt;span style=&quot;color: #dcdcaa;&quot;&gt;register_animal&lt;/span&gt;&lt;/div&gt;" style="text;strokeColor=none;align=center;fillColor=none;html=1;verticalAlign=middle;whiteSpace=wrap;rounded=0;" vertex="1" parent="B0jDkbaa32eKcBH1OwyZ-1">
          <mxGeometry x="210" y="240" width="60" height="30" as="geometry" />
        </mxCell>
        <mxCell id="7cdcQIRUahdM-4hk9uW0-3" value="" style="endArrow=none;html=1;rounded=0;exitX=0.444;exitY=-0.013;exitDx=0;exitDy=0;exitPerimeter=0;" edge="1" parent="B0jDkbaa32eKcBH1OwyZ-1" source="B0jDkbaa32eKcBH1OwyZ-4" target="B0jDkbaa32eKcBH1OwyZ-6">
          <mxGeometry width="50" height="50" relative="1" as="geometry">
            <mxPoint x="340" y="430" as="sourcePoint" />
            <mxPoint x="180" y="140" as="targetPoint" />
          </mxGeometry>
        </mxCell>
        <mxCell id="7cdcQIRUahdM-4hk9uW0-4" value="&lt;div style=&quot;color: rgb(204, 204, 204); background-color: rgb(31, 31, 31); font-family: Consolas, &amp;quot;Courier New&amp;quot;, monospace; font-size: 14px; line-height: 19px; white-space: pre;&quot;&gt;&lt;span style=&quot;color: #dcdcaa;&quot;&gt;remove_animal&lt;/span&gt;&lt;/div&gt;" style="text;strokeColor=none;align=center;fillColor=none;html=1;verticalAlign=middle;whiteSpace=wrap;rounded=0;" vertex="1" parent="B0jDkbaa32eKcBH1OwyZ-1">
          <mxGeometry x="80" y="260" width="60" height="30" as="geometry" />
        </mxCell>
        <mxCell id="7cdcQIRUahdM-4hk9uW0-5" value="" style="endArrow=none;html=1;rounded=0;entryX=0;entryY=0.5;entryDx=0;entryDy=0;exitX=1;exitY=0.5;exitDx=0;exitDy=0;" edge="1" parent="B0jDkbaa32eKcBH1OwyZ-1" source="B0jDkbaa32eKcBH1OwyZ-4" target="B0jDkbaa32eKcBH1OwyZ-13">
          <mxGeometry width="50" height="50" relative="1" as="geometry">
            <mxPoint x="340" y="430" as="sourcePoint" />
            <mxPoint x="390" y="380" as="targetPoint" />
          </mxGeometry>
        </mxCell>
        <mxCell id="7cdcQIRUahdM-4hk9uW0-7" value="&lt;div style=&quot;color: rgb(204, 204, 204); background-color: rgb(31, 31, 31); font-family: Consolas, &amp;quot;Courier New&amp;quot;, monospace; font-size: 14px; line-height: 19px; white-space: pre;&quot;&gt;&lt;span style=&quot;color: #dcdcaa;&quot;&gt;assign_animals_to_habitat&lt;/span&gt;&lt;/div&gt;" style="text;strokeColor=none;align=center;fillColor=none;html=1;verticalAlign=middle;whiteSpace=wrap;rounded=0;" vertex="1" parent="B0jDkbaa32eKcBH1OwyZ-1">
          <mxGeometry x="395" y="275" width="60" height="30" as="geometry" />
        </mxCell>
        <mxCell id="7cdcQIRUahdM-4hk9uW0-8" value="" style="endArrow=none;html=1;rounded=0;entryX=0.5;entryY=0;entryDx=0;entryDy=0;exitX=0;exitY=0.5;exitDx=0;exitDy=0;" edge="1" parent="B0jDkbaa32eKcBH1OwyZ-1" source="B0jDkbaa32eKcBH1OwyZ-14" target="B0jDkbaa32eKcBH1OwyZ-13">
          <mxGeometry width="50" height="50" relative="1" as="geometry">
            <mxPoint x="760" y="430" as="sourcePoint" />
            <mxPoint x="810" y="380" as="targetPoint" />
          </mxGeometry>
        </mxCell>
        <mxCell id="7cdcQIRUahdM-4hk9uW0-9" value="&lt;div style=&quot;color: rgb(204, 204, 204); background-color: rgb(31, 31, 31); font-family: Consolas, &amp;quot;Courier New&amp;quot;, monospace; font-size: 14px; line-height: 19px; white-space: pre;&quot;&gt;&lt;span style=&quot;color: #dcdcaa;&quot;&gt;create_habitat&lt;/span&gt;&lt;/div&gt;" style="text;strokeColor=none;align=center;fillColor=none;html=1;verticalAlign=middle;whiteSpace=wrap;rounded=0;" vertex="1" parent="B0jDkbaa32eKcBH1OwyZ-1">
          <mxGeometry x="570" y="200" width="60" height="30" as="geometry" />
        </mxCell>
        <mxCell id="7cdcQIRUahdM-4hk9uW0-10" value="&lt;div style=&quot;color: rgb(204, 204, 204); background-color: rgb(31, 31, 31); font-family: Consolas, &amp;quot;Courier New&amp;quot;, monospace; font-size: 14px; line-height: 19px; white-space: pre;&quot;&gt;&lt;span style=&quot;color: #dcdcaa;&quot;&gt;get_habitat_by_id&lt;/span&gt;&lt;/div&gt;" style="text;strokeColor=none;align=center;fillColor=none;html=1;verticalAlign=middle;whiteSpace=wrap;rounded=0;" vertex="1" parent="B0jDkbaa32eKcBH1OwyZ-1">
          <mxGeometry x="625" y="230" width="60" height="30" as="geometry" />
        </mxCell>
        <mxCell id="7cdcQIRUahdM-4hk9uW0-11" value="&lt;div style=&quot;color: rgb(204, 204, 204); background-color: rgb(31, 31, 31); font-family: Consolas, &amp;quot;Courier New&amp;quot;, monospace; font-size: 14px; line-height: 19px; white-space: pre;&quot;&gt;&lt;span style=&quot;color: #dcdcaa;&quot;&gt;get_habitats_by_geographic_area&lt;/span&gt;&lt;/div&gt;" style="text;strokeColor=none;align=center;fillColor=none;html=1;verticalAlign=middle;whiteSpace=wrap;rounded=0;" vertex="1" parent="B0jDkbaa32eKcBH1OwyZ-1">
          <mxGeometry x="710" y="260" width="60" height="30" as="geometry" />
        </mxCell>
        <mxCell id="7cdcQIRUahdM-4hk9uW0-12" value="&lt;div style=&quot;color: rgb(204, 204, 204); background-color: rgb(31, 31, 31); font-family: Consolas, &amp;quot;Courier New&amp;quot;, monospace; font-size: 14px; line-height: 19px; white-space: pre;&quot;&gt;&lt;span style=&quot;color: #dcdcaa;&quot;&gt;get_habitats_by_size&lt;/span&gt;&lt;/div&gt;" style="text;strokeColor=none;align=center;fillColor=none;html=1;verticalAlign=middle;whiteSpace=wrap;rounded=0;" vertex="1" parent="B0jDkbaa32eKcBH1OwyZ-1">
          <mxGeometry x="630" y="170" width="60" height="30" as="geometry" />
        </mxCell>
        <mxCell id="7cdcQIRUahdM-4hk9uW0-13" value="&lt;div style=&quot;color: rgb(204, 204, 204); background-color: rgb(31, 31, 31); font-family: Consolas, &amp;quot;Courier New&amp;quot;, monospace; font-size: 14px; line-height: 19px; white-space: pre;&quot;&gt;&lt;span style=&quot;color: #dcdcaa;&quot;&gt;get_habitats_by_type&lt;/span&gt;&lt;/div&gt;" style="text;strokeColor=none;align=center;fillColor=none;html=1;verticalAlign=middle;whiteSpace=wrap;rounded=0;" vertex="1" parent="B0jDkbaa32eKcBH1OwyZ-1">
          <mxGeometry x="730" y="200" width="60" height="30" as="geometry" />
        </mxCell>
        <mxCell id="7cdcQIRUahdM-4hk9uW0-20" style="edgeStyle=orthogonalEdgeStyle;rounded=0;orthogonalLoop=1;jettySize=auto;html=1;exitX=0;exitY=0.25;exitDx=0;exitDy=0;entryX=0.25;entryY=1;entryDx=0;entryDy=0;" edge="1" parent="B0jDkbaa32eKcBH1OwyZ-1" source="7cdcQIRUahdM-4hk9uW0-14" target="7cdcQIRUahdM-4hk9uW0-13">
          <mxGeometry relative="1" as="geometry" />
        </mxCell>
        <mxCell id="7cdcQIRUahdM-4hk9uW0-14" value="&lt;div style=&quot;color: rgb(204, 204, 204); background-color: rgb(31, 31, 31); font-family: Consolas, &amp;quot;Courier New&amp;quot;, monospace; font-size: 14px; line-height: 19px; white-space: pre;&quot;&gt;&lt;span style=&quot;color: #dcdcaa;&quot;&gt;remove_habitat&lt;/span&gt;&lt;/div&gt;" style="text;strokeColor=none;align=center;fillColor=none;html=1;verticalAlign=middle;whiteSpace=wrap;rounded=0;" vertex="1" parent="B0jDkbaa32eKcBH1OwyZ-1">
          <mxGeometry x="760" y="230" width="60" height="30" as="geometry" />
        </mxCell>
        <mxCell id="7cdcQIRUahdM-4hk9uW0-15" value="" style="endArrow=none;html=1;rounded=0;entryX=0;entryY=0.75;entryDx=0;entryDy=0;exitX=0.994;exitY=0.681;exitDx=0;exitDy=0;exitPerimeter=0;" edge="1" parent="B0jDkbaa32eKcBH1OwyZ-1" source="B0jDkbaa32eKcBH1OwyZ-6" target="B0jDkbaa32eKcBH1OwyZ-14">
          <mxGeometry width="50" height="50" relative="1" as="geometry">
            <mxPoint x="385" y="390" as="sourcePoint" />
            <mxPoint x="675" y="350.0000000000001" as="targetPoint" />
          </mxGeometry>
        </mxCell>
        <mxCell id="7cdcQIRUahdM-4hk9uW0-16" value="&lt;div style=&quot;color: rgb(204, 204, 204); background-color: rgb(31, 31, 31); font-family: Consolas, &amp;quot;Courier New&amp;quot;, monospace; font-size: 14px; line-height: 19px; white-space: pre;&quot;&gt;&lt;span style=&quot;color: #dcdcaa;&quot;&gt;assign_animals_to_habitat&lt;/span&gt;&lt;/div&gt;" style="text;strokeColor=none;align=center;fillColor=none;html=1;verticalAlign=middle;whiteSpace=wrap;rounded=0;" vertex="1" parent="B0jDkbaa32eKcBH1OwyZ-1">
          <mxGeometry x="425" y="360" width="60" height="30" as="geometry" />
        </mxCell>
        <mxCell id="7cdcQIRUahdM-4hk9uW0-21" value="&lt;div style=&quot;color: rgb(204, 204, 204); background-color: rgb(31, 31, 31); font-family: Consolas, &amp;quot;Courier New&amp;quot;, monospace; font-size: 14px; line-height: 19px; white-space: pre;&quot;&gt;&lt;span style=&quot;color: #dcdcaa;&quot;&gt;get_animals_in_habitat&lt;/span&gt;&lt;/div&gt;" style="text;strokeColor=none;align=center;fillColor=none;html=1;verticalAlign=middle;whiteSpace=wrap;rounded=0;" vertex="1" parent="B0jDkbaa32eKcBH1OwyZ-1">
          <mxGeometry x="420" y="390" width="60" height="30" as="geometry" />
        </mxCell>
        <mxCell id="7cdcQIRUahdM-4hk9uW0-22" value="" style="endArrow=none;html=1;rounded=0;entryX=0.5;entryY=1;entryDx=0;entryDy=0;exitX=0.5;exitY=0;exitDx=0;exitDy=0;" edge="1" parent="B0jDkbaa32eKcBH1OwyZ-1" source="B0jDkbaa32eKcBH1OwyZ-19" target="B0jDkbaa32eKcBH1OwyZ-14">
          <mxGeometry width="50" height="50" relative="1" as="geometry">
            <mxPoint x="400" y="530" as="sourcePoint" />
            <mxPoint x="450" y="480" as="targetPoint" />
          </mxGeometry>
        </mxCell>
        <mxCell id="7cdcQIRUahdM-4hk9uW0-23" value="&lt;div style=&quot;color: rgb(204, 204, 204); background-color: rgb(31, 31, 31); font-family: Consolas, &amp;quot;Courier New&amp;quot;, monospace; font-size: 14px; line-height: 19px; white-space: pre;&quot;&gt;&lt;span style=&quot;color: #dcdcaa;&quot;&gt;create_migration_path&lt;/span&gt;&lt;/div&gt;" style="text;strokeColor=none;align=center;fillColor=none;html=1;verticalAlign=middle;whiteSpace=wrap;rounded=0;" vertex="1" parent="B0jDkbaa32eKcBH1OwyZ-1">
          <mxGeometry x="580" y="590" width="60" height="30" as="geometry" />
        </mxCell>
        <mxCell id="7cdcQIRUahdM-4hk9uW0-24" value="&lt;div style=&quot;color: rgb(204, 204, 204); background-color: rgb(31, 31, 31); font-family: Consolas, &amp;quot;Courier New&amp;quot;, monospace; font-size: 14px; line-height: 19px; white-space: pre;&quot;&gt;&lt;span style=&quot;color: #dcdcaa;&quot;&gt;get_migration_paths_by_destination&lt;/span&gt;&lt;/div&gt;" style="text;strokeColor=none;align=center;fillColor=none;html=1;verticalAlign=middle;whiteSpace=wrap;rounded=0;" vertex="1" parent="B0jDkbaa32eKcBH1OwyZ-1">
          <mxGeometry x="590" y="620" width="60" height="30" as="geometry" />
        </mxCell>
        <mxCell id="7cdcQIRUahdM-4hk9uW0-25" value="&lt;div style=&quot;color: rgb(204, 204, 204); background-color: rgb(31, 31, 31); font-family: Consolas, &amp;quot;Courier New&amp;quot;, monospace; font-size: 14px; line-height: 19px; white-space: pre;&quot;&gt;&lt;span style=&quot;color: #dcdcaa;&quot;&gt;get_migration_paths_by_start_location&lt;/span&gt;&lt;/div&gt;" style="text;strokeColor=none;align=center;fillColor=none;html=1;verticalAlign=middle;whiteSpace=wrap;rounded=0;" vertex="1" parent="B0jDkbaa32eKcBH1OwyZ-1">
          <mxGeometry x="580" y="660" width="60" height="30" as="geometry" />
        </mxCell>
        <mxCell id="7cdcQIRUahdM-4hk9uW0-27" value="" style="endArrow=none;html=1;rounded=0;exitX=0.5;exitY=1;exitDx=0;exitDy=0;entryX=0.5;entryY=0;entryDx=0;entryDy=0;" edge="1" parent="B0jDkbaa32eKcBH1OwyZ-1" source="B0jDkbaa32eKcBH1OwyZ-19" target="B0jDkbaa32eKcBH1OwyZ-11">
          <mxGeometry width="50" height="50" relative="1" as="geometry">
            <mxPoint x="480" y="820" as="sourcePoint" />
            <mxPoint x="530" y="770" as="targetPoint" />
          </mxGeometry>
        </mxCell>
        <mxCell id="7cdcQIRUahdM-4hk9uW0-28" value="&lt;div style=&quot;color: rgb(204, 204, 204); background-color: rgb(31, 31, 31); font-family: Consolas, &amp;quot;Courier New&amp;quot;, monospace; font-size: 14px; line-height: 19px; white-space: pre;&quot;&gt;&lt;span style=&quot;color: #dcdcaa;&quot;&gt;cancel_migration&lt;/span&gt;&lt;/div&gt;" style="text;strokeColor=none;align=center;fillColor=none;html=1;verticalAlign=middle;whiteSpace=wrap;rounded=0;" vertex="1" parent="B0jDkbaa32eKcBH1OwyZ-1">
          <mxGeometry x="520" y="790" width="60" height="30" as="geometry" />
        </mxCell>
        <mxCell id="7cdcQIRUahdM-4hk9uW0-29" value="&lt;div style=&quot;color: rgb(204, 204, 204); background-color: rgb(31, 31, 31); font-family: Consolas, &amp;quot;Courier New&amp;quot;, monospace; font-size: 14px; line-height: 19px; white-space: pre;&quot;&gt;&lt;span style=&quot;color: #dcdcaa;&quot;&gt;get_migration_by_id&lt;/span&gt;&lt;/div&gt;" style="text;strokeColor=none;align=center;fillColor=none;html=1;verticalAlign=middle;whiteSpace=wrap;rounded=0;" vertex="1" parent="B0jDkbaa32eKcBH1OwyZ-1">
          <mxGeometry x="590" y="820" width="60" height="30" as="geometry" />
        </mxCell>
        <mxCell id="7cdcQIRUahdM-4hk9uW0-30" value="&lt;span style=&quot;color: rgb(220, 220, 170); background-color: rgb(31, 31, 31); font-family: Consolas, &amp;quot;Courier New&amp;quot;, monospace; font-size: 14px; white-space: pre;&quot;&gt;get_migrations&lt;/span&gt;" style="text;strokeColor=none;align=center;fillColor=none;html=1;verticalAlign=middle;whiteSpace=wrap;rounded=0;" vertex="1" parent="B0jDkbaa32eKcBH1OwyZ-1">
          <mxGeometry x="570" y="760" width="60" height="30" as="geometry" />
        </mxCell>
        <mxCell id="7cdcQIRUahdM-4hk9uW0-31" value="&lt;div style=&quot;color: rgb(204, 204, 204); background-color: rgb(31, 31, 31); font-family: Consolas, &amp;quot;Courier New&amp;quot;, monospace; font-size: 14px; line-height: 19px; white-space: pre;&quot;&gt;&lt;span style=&quot;color: #dcdcaa;&quot;&gt;get_migrations_by_current_location&lt;/span&gt;&lt;/div&gt;" style="text;strokeColor=none;align=center;fillColor=none;html=1;verticalAlign=middle;whiteSpace=wrap;rounded=0;" vertex="1" parent="B0jDkbaa32eKcBH1OwyZ-1">
          <mxGeometry x="625" y="860" width="60" height="30" as="geometry" />
        </mxCell>
        <mxCell id="7cdcQIRUahdM-4hk9uW0-32" value="&lt;div style=&quot;color: rgb(204, 204, 204); background-color: rgb(31, 31, 31); font-family: Consolas, &amp;quot;Courier New&amp;quot;, monospace; font-size: 14px; line-height: 19px; white-space: pre;&quot;&gt;&lt;span style=&quot;color: #dcdcaa;&quot;&gt;get_migrations_by_migration_path&lt;/span&gt;&lt;/div&gt;" style="text;strokeColor=none;align=center;fillColor=none;html=1;verticalAlign=middle;whiteSpace=wrap;rounded=0;" vertex="1" parent="B0jDkbaa32eKcBH1OwyZ-1">
          <mxGeometry x="625" y="890" width="60" height="30" as="geometry" />
        </mxCell>
        <mxCell id="7cdcQIRUahdM-4hk9uW0-33" value="&lt;div style=&quot;color: rgb(204, 204, 204); background-color: rgb(31, 31, 31); font-family: Consolas, &amp;quot;Courier New&amp;quot;, monospace; font-size: 14px; line-height: 19px; white-space: pre;&quot;&gt;&lt;span style=&quot;color: #dcdcaa;&quot;&gt;get_migrations_by_start_date&lt;/span&gt;&lt;/div&gt;" style="text;strokeColor=none;align=center;fillColor=none;html=1;verticalAlign=middle;whiteSpace=wrap;rounded=0;" vertex="1" parent="B0jDkbaa32eKcBH1OwyZ-1">
          <mxGeometry x="650" y="940" width="60" height="30" as="geometry" />
        </mxCell>
        <mxCell id="7cdcQIRUahdM-4hk9uW0-34" value="&lt;div style=&quot;color: rgb(204, 204, 204); background-color: rgb(31, 31, 31); font-family: Consolas, &amp;quot;Courier New&amp;quot;, monospace; font-size: 14px; line-height: 19px; white-space: pre;&quot;&gt;&lt;span style=&quot;color: #dcdcaa;&quot;&gt;get_migrations_by_status&lt;/span&gt;&lt;/div&gt;" style="text;strokeColor=none;align=center;fillColor=none;html=1;verticalAlign=middle;whiteSpace=wrap;rounded=0;" vertex="1" parent="B0jDkbaa32eKcBH1OwyZ-1">
          <mxGeometry x="640" y="970" width="60" height="30" as="geometry" />
        </mxCell>
        <mxCell id="7cdcQIRUahdM-4hk9uW0-35" value="" style="endArrow=none;html=1;rounded=0;entryX=0.25;entryY=0;entryDx=0;entryDy=0;exitX=0.25;exitY=1;exitDx=0;exitDy=0;" edge="1" parent="B0jDkbaa32eKcBH1OwyZ-1" source="B0jDkbaa32eKcBH1OwyZ-19" target="B0jDkbaa32eKcBH1OwyZ-10">
          <mxGeometry width="50" height="50" relative="1" as="geometry">
            <mxPoint x="370" y="780" as="sourcePoint" />
            <mxPoint x="215.0000000000001" y="840" as="targetPoint" />
          </mxGeometry>
        </mxCell>
        <mxCell id="7cdcQIRUahdM-4hk9uW0-37" value="&lt;div style=&quot;color: rgb(204, 204, 204); background-color: rgb(31, 31, 31); font-family: Consolas, &amp;quot;Courier New&amp;quot;, monospace; font-size: 14px; line-height: 19px; white-space: pre;&quot;&gt;&lt;span style=&quot;color: #dcdcaa;&quot;&gt;get_migration_path_by_id&lt;/span&gt;&lt;/div&gt;" style="text;strokeColor=none;align=center;fillColor=none;html=1;verticalAlign=middle;whiteSpace=wrap;rounded=0;" vertex="1" parent="B0jDkbaa32eKcBH1OwyZ-1">
          <mxGeometry x="185" y="790" width="60" height="30" as="geometry" />
        </mxCell>
        <mxCell id="7cdcQIRUahdM-4hk9uW0-38" value="&lt;div style=&quot;color: rgb(204, 204, 204); background-color: rgb(31, 31, 31); font-family: Consolas, &amp;quot;Courier New&amp;quot;, monospace; font-size: 14px; line-height: 19px; white-space: pre;&quot;&gt;&lt;span style=&quot;color: #dcdcaa;&quot;&gt;get_migration_paths&lt;/span&gt;&lt;/div&gt;" style="text;strokeColor=none;align=center;fillColor=none;html=1;verticalAlign=middle;whiteSpace=wrap;rounded=0;" vertex="1" parent="B0jDkbaa32eKcBH1OwyZ-1">
          <mxGeometry x="150" y="820" width="60" height="30" as="geometry" />
        </mxCell>
        <mxCell id="7cdcQIRUahdM-4hk9uW0-39" value="&lt;div style=&quot;color: rgb(204, 204, 204); background-color: rgb(31, 31, 31); font-family: Consolas, &amp;quot;Courier New&amp;quot;, monospace; font-size: 14px; line-height: 19px; white-space: pre;&quot;&gt;&lt;span style=&quot;color: #dcdcaa;&quot;&gt;get_migration_paths_by_destination&lt;/span&gt;&lt;/div&gt;" style="text;strokeColor=none;align=center;fillColor=none;html=1;verticalAlign=middle;whiteSpace=wrap;rounded=0;" vertex="1" parent="B0jDkbaa32eKcBH1OwyZ-1">
          <mxGeometry x="140" y="850" width="60" height="30" as="geometry" />
        </mxCell>
        <mxCell id="7cdcQIRUahdM-4hk9uW0-40" value="&lt;div style=&quot;color: rgb(204, 204, 204); background-color: rgb(31, 31, 31); font-family: Consolas, &amp;quot;Courier New&amp;quot;, monospace; font-size: 14px; line-height: 19px; white-space: pre;&quot;&gt;&lt;span style=&quot;color: #dcdcaa;&quot;&gt;get_migration_paths_by_species&lt;/span&gt;&lt;/div&gt;" style="text;strokeColor=none;align=center;fillColor=none;html=1;verticalAlign=middle;whiteSpace=wrap;rounded=0;" vertex="1" parent="B0jDkbaa32eKcBH1OwyZ-1">
          <mxGeometry x="130" y="880" width="60" height="30" as="geometry" />
        </mxCell>
        <mxCell id="7cdcQIRUahdM-4hk9uW0-41" value="&lt;div style=&quot;color: rgb(204, 204, 204); background-color: rgb(31, 31, 31); font-family: Consolas, &amp;quot;Courier New&amp;quot;, monospace; font-size: 14px; line-height: 19px; white-space: pre;&quot;&gt;&lt;span style=&quot;color: #dcdcaa;&quot;&gt;get_migration_paths_by_start_location&lt;/span&gt;&lt;/div&gt;" style="text;strokeColor=none;align=center;fillColor=none;html=1;verticalAlign=middle;whiteSpace=wrap;rounded=0;" vertex="1" parent="B0jDkbaa32eKcBH1OwyZ-1">
          <mxGeometry x="140" y="945" width="60" height="30" as="geometry" />
        </mxCell>
      </root>
    </mxGraphModel>
  </diagram>
</mxfile>
